<mxfile host="65bd71144e">
    <diagram name="Page-1" id="nxk0ZmxvZrGcQLL9s5af">
        <mxGraphModel dx="1488" dy="1088" grid="1" gridSize="10" guides="1" tooltips="1" connect="1" arrows="1" fold="1" page="1" pageScale="1" pageWidth="1169" pageHeight="827" math="0" shadow="0">
            <root>
                <mxCell id="0"/>
                <mxCell id="1" style="" parent="0"/>
                <mxCell id="15" style="edgeStyle=none;html=1;exitX=0.5;exitY=1;exitDx=0;exitDy=0;entryX=0.5;entryY=0;entryDx=0;entryDy=0;fontSize=20;entryPerimeter=0;startArrow=classic;startFill=1;" edge="1" parent="1" source="bRbaYRU3lNsDe89mBz-G-16" target="bRbaYRU3lNsDe89mBz-G-65">
                    <mxGeometry relative="1" as="geometry"/>
                </mxCell>
                <mxCell id="bRbaYRU3lNsDe89mBz-G-16" value="" style="rounded=0;whiteSpace=wrap;html=1;" parent="1" vertex="1">
                    <mxGeometry x="800" y="129" width="360" height="570" as="geometry"/>
                </mxCell>
                <mxCell id="bRbaYRU3lNsDe89mBz-G-26" value="" style="group;fontSize=15;" parent="1" vertex="1" connectable="0">
                    <mxGeometry x="40" y="250" width="270" height="270" as="geometry"/>
                </mxCell>
                <mxCell id="bRbaYRU3lNsDe89mBz-G-2" value="&lt;p style=&quot;line-height: 100%;&quot;&gt;&lt;br&gt;&lt;/p&gt;" style="whiteSpace=wrap;html=1;aspect=fixed;" parent="bRbaYRU3lNsDe89mBz-G-26" vertex="1">
                    <mxGeometry width="270" height="270" as="geometry"/>
                </mxCell>
                <mxCell id="bRbaYRU3lNsDe89mBz-G-25" value="" style="shape=image;verticalLabelPosition=bottom;labelBackgroundColor=default;verticalAlign=top;aspect=fixed;imageAspect=0;image=data:image/svg+xml,PHN2ZyB4bWxucz0iaHR0cDovL3d3dy53My5vcmcvMjAwMC9zdmciIHZpZXdCb3g9IjAgMCAyMDQ4IDIwNDgiIGhlaWdodD0iMWVtIiB3aWR0aD0iMWVtIj48cGF0aCBkPSJNMjA0OCA4OTZoLTg5NlYzODRINTEydjI1NmgzODR2ODk2SDUxMnYyNTZoNjQwdi02NDBoODk2djg5NmgtODk2di0xMjhIMzg0di0zODRIMFY2NDBoMzg0VjI1Nmg3NjhWMGg4OTZ2ODk2em0tNzY4LTc2OHYxMjhoNjQwVjEyOGgtNjQwem0wIDI1NnYzODRoNjQwVjM4NGgtNjQwem0wIDg5NnYxMjhoNjQwdi0xMjhoLTY0MHptMCAyNTZ2Mzg0aDY0MHYtMzg0aC02NDB6bS01MTItMTI4di0zODRIMTI4djM4NGg2NDB6bTAtNjQwSDEyOHYxMjhoNjQwVjc2OHoiIGZpbGw9ImN1cnJlbnRDb2xvciIvPjwvc3ZnPg==;" parent="bRbaYRU3lNsDe89mBz-G-26" vertex="1">
                    <mxGeometry x="95.5" y="120" width="79" height="79" as="geometry"/>
                </mxCell>
                <mxCell id="bRbaYRU3lNsDe89mBz-G-27" value="&lt;font style=&quot;font-size: 20px;&quot;&gt;IDE M&amp;amp;S&lt;/font&gt;" style="text;strokeColor=none;align=center;fillColor=none;html=1;verticalAlign=middle;whiteSpace=wrap;rounded=0;" parent="bRbaYRU3lNsDe89mBz-G-26" vertex="1">
                    <mxGeometry x="67.5" y="20" width="135" height="30" as="geometry"/>
                </mxCell>
                <mxCell id="bRbaYRU3lNsDe89mBz-G-34" value="models" style="text;html=1;strokeColor=none;fillColor=none;align=center;verticalAlign=middle;whiteSpace=wrap;rounded=0;fontSize=20;" parent="bRbaYRU3lNsDe89mBz-G-26" vertex="1">
                    <mxGeometry x="105" y="90" width="60" height="30" as="geometry"/>
                </mxCell>
                <mxCell id="22" value="&lt;font style=&quot;font-size: 25px;&quot;&gt;1.&lt;/font&gt;" style="text;html=1;align=center;verticalAlign=middle;resizable=0;points=[];autosize=1;strokeColor=none;fillColor=none;fontSize=12;" vertex="1" parent="bRbaYRU3lNsDe89mBz-G-26">
                    <mxGeometry x="190" y="115" width="40" height="40" as="geometry"/>
                </mxCell>
                <mxCell id="10" style="edgeStyle=none;html=1;exitX=1;exitY=0.5;exitDx=0;exitDy=0;entryX=0;entryY=0.5;entryDx=0;entryDy=0;fontSize=20;" edge="1" parent="1" source="bRbaYRU3lNsDe89mBz-G-30" target="bRbaYRU3lNsDe89mBz-G-6">
                    <mxGeometry relative="1" as="geometry"/>
                </mxCell>
                <mxCell id="bRbaYRU3lNsDe89mBz-G-30" value="Export format (json, yaml, xml, etc..." style="rounded=0;whiteSpace=wrap;html=1;fontSize=17;" parent="1" vertex="1">
                    <mxGeometry x="92.5" y="610" width="165" height="120" as="geometry"/>
                </mxCell>
                <mxCell id="bRbaYRU3lNsDe89mBz-G-36" value="" style="group" parent="1" vertex="1" connectable="0">
                    <mxGeometry x="370" y="129" width="360" height="570" as="geometry"/>
                </mxCell>
                <mxCell id="bRbaYRU3lNsDe89mBz-G-37" value="" style="group" parent="bRbaYRU3lNsDe89mBz-G-36" vertex="1" connectable="0">
                    <mxGeometry width="360" height="570" as="geometry"/>
                </mxCell>
                <mxCell id="bRbaYRU3lNsDe89mBz-G-6" value="" style="rounded=0;whiteSpace=wrap;html=1;fontSize=16;" parent="bRbaYRU3lNsDe89mBz-G-37" vertex="1">
                    <mxGeometry y="10" width="360" height="570" as="geometry"/>
                </mxCell>
                <mxCell id="bRbaYRU3lNsDe89mBz-G-35" value="Eledone" style="text;html=1;align=center;verticalAlign=middle;resizable=0;points=[];autosize=1;strokeColor=none;fillColor=none;fontSize=20;" parent="bRbaYRU3lNsDe89mBz-G-37" vertex="1">
                    <mxGeometry x="130" y="25" width="100" height="40" as="geometry"/>
                </mxCell>
                <mxCell id="bRbaYRU3lNsDe89mBz-G-38" value="" style="rounded=0;whiteSpace=wrap;html=1;fontSize=18;" parent="bRbaYRU3lNsDe89mBz-G-37" vertex="1">
                    <mxGeometry x="77.5" y="120" width="205" height="130" as="geometry"/>
                </mxCell>
                <mxCell id="bRbaYRU3lNsDe89mBz-G-39" value="back-end" style="text;html=1;align=center;verticalAlign=middle;resizable=0;points=[];autosize=1;strokeColor=none;fillColor=none;fontSize=20;" parent="bRbaYRU3lNsDe89mBz-G-37" vertex="1">
                    <mxGeometry x="125" y="135" width="110" height="40" as="geometry"/>
                </mxCell>
                <mxCell id="bRbaYRU3lNsDe89mBz-G-40" value="" style="rounded=0;whiteSpace=wrap;html=1;" parent="bRbaYRU3lNsDe89mBz-G-37" vertex="1">
                    <mxGeometry x="77.5" y="360" width="205" height="140" as="geometry"/>
                </mxCell>
                <mxCell id="bRbaYRU3lNsDe89mBz-G-42" value="&lt;font style=&quot;font-size: 20px;&quot;&gt;front-end&lt;/font&gt;" style="text;html=1;align=center;verticalAlign=middle;resizable=0;points=[];autosize=1;strokeColor=none;fillColor=none;" parent="bRbaYRU3lNsDe89mBz-G-37" vertex="1">
                    <mxGeometry x="130" y="375" width="100" height="40" as="geometry"/>
                </mxCell>
                <mxCell id="bRbaYRU3lNsDe89mBz-G-59" value="" style="edgeStyle=orthogonalEdgeStyle;rounded=0;orthogonalLoop=1;jettySize=auto;html=1;startArrow=classic;startFill=1;" parent="bRbaYRU3lNsDe89mBz-G-37" source="bRbaYRU3lNsDe89mBz-G-38" target="bRbaYRU3lNsDe89mBz-G-40" edge="1">
                    <mxGeometry relative="1" as="geometry"/>
                </mxCell>
                <mxCell id="4" value="" style="shape=image;verticalLabelPosition=bottom;labelBackgroundColor=default;verticalAlign=top;aspect=fixed;imageAspect=0;image=data:image/svg+xml,PHN2ZyB4bWxucz0iaHR0cDovL3d3dy53My5vcmcvMjAwMC9zdmciIHZpZXdCb3g9IjAgMCA1MTIgNTEyIiBoZWlnaHQ9IjFlbSIgd2lkdGg9IjFlbSI+PHBhdGggZD0iTTE1MC4yNSAxOS45N2MtMTE0LjQ4LS41NzQtMTM5Ljk3MiAxODQuOTUgMjAuNTYzIDIxMi4xMjRjLTI5LjUuNTM0LTU1LjM4MiA4LjExLTkxLjc1IDI1Ljk3Qy0xOS4yIDMwNi4zMTMuNjY1IDQ2Mi45NjYgMTAwLjg3NCA0NDZjMzQuNDgtNS44MzggNTEuMjEtNTAuMzI1Ljg3NS02NS4zNzVjMTYuNTE1IDI5LjYxLTI3Ljk2OCA0Ny4xLTQxLjkwNiAxLjkzOGMtMTEuMjYyLTM2LjQ5IDIxLjE0NS03NC45MTQgNTIuNDY4LTg1YzMwLjUtOS44MiA1NS4yNDQtMTAuODYgODIuNDctNS44NDRjLTM2LjU4NSAzNC4yNDctNTYuNTQ3IDgwLjQ2NS00Mi4zNzYgMTIzLjYyNGM0NC41MjIgMTM1LjU5NSAxOTIuMTQ2IDgyLjUyIDE2Mi44NDQtNi43MmMtMTAuMzQ2LTMxLjUwNi00MS40MDgtNDYuNTA1LTY4LTEwLjE1NWMzNS4xNjQtOC44NTQgNTAuNDUgMzguNzUgMTguMTg4IDQ5LjM0MmMtMjYuMzU1IDguNjU1LTYwLjIxMi0xMy41MjctNjYuMDMyLTQxLjM0M2MtNy44Mi0zNy4zOSAxOS43Ny03Ny4xOTUgNTQuNzgtOTUuMjVjMjIuMTc2IDM1LjM3IDM4LjgxMiA0OC42OCA4My4yMiA3Mi4xODZjODUuODQzIDQ1LjQzNiAyMTIuOTU3LTM2LjU0IDE0My45MDYtMTEwLjUzYy0yMi42MjYtMjQuMjQ0LTU0LjU3NC0zMC4wMi02Ny41IDEzLjEyNGMzMC4xODgtMjAuMDkgNjAuNzQ4IDI2LjggMzMuODc1IDQ3LjU2M2MtMjEuOTUgMTYuOTYtNjEuNTAzIDE5LjEzNS04Ni40MzcgNS41Yy0zMC43OTctMTYuODQyLTUzLjc5LTM3Ljc5OC03MC4xODgtNjYuNTMyYzU3LjA3IDEzLjY5IDExOS41ODQtMS4wNjUgMTQzLTQ1LjM0MmM0NS43Mi04Ni40NS03LjA0Ni0xNTIuNDY3LTU5LjEyNS0xNTMuMzc1Yy0yMC4zNzgtLjM1Ni00MC42NTQgOS4yMzctNTQuODc1IDMxLjVjLTE3Ljg1IDI3Ljk0Ni05LjgxNSA2MS41MzMgMzUuMTU3IDU5LjEyNGMtMjkuMTEtMjEuNjI4LTEuOS02My42MjMgMjYuNzE3LTQ1LjM0M2MyMy4zNzggMTQuOTMyIDIyLjQ5NCA1MS44OCA5Ljc1IDc3LjI4Yy0xNS4xNjUgMzAuMjMtNjAuNTczIDUwLjczOC05NS4wNjIgMjQuNjU3Yy0zLjAwOC01LjcxLTUuNTYzLTExLjY4My03Ljc4LTE3Ljg0M2M4Ljk5LTYuNDkgMTQuODc0LTE3LjAyOCAxNC44NzQtMjguODc1YzAtMTcuNzcyLTEzLjI1Mi0zMi42NC0zMC4zNDUtMzUuMjE4Yy05Ljc2My00Ny4xMzQtMjMuMzQtOTIuNjQ4LTg0Ljg0NC0xMTIuNTk0Yy0xMy42NC00LjQyNC0yNi40MzctNi40NzItMzguMjgtNi41M3ptMTE3Ljg0NCAxMzcuNDA1YzkuNDYzIDAgMTYuOTM3IDcuNDc0IDE2LjkzNyAxNi45MzhjMCA5LjQ2My03LjQ3MyAxNi45MzctMTYuOTM2IDE2LjkzN2MtOS40NjMgMC0xNi45MDYtNy40NzQtMTYuOTA2LTE2LjkzOGMwLTkuNDYzIDcuNDQzLTE2LjkzNyAxNi45MDYtMTYuOTM3em0tNjUuNDA2IDEwLjVjOS40NjMgMCAxNi45MzcgNy40NzQgMTYuOTM3IDE2LjkzOGMwIDkuNDYzLTcuNDc0IDE2LjkzNy0xNi45MzggMTYuOTM3Yy05LjQ2MyAwLTE2LjkzNy03LjQ3NC0xNi45MzctMTYuOTM4YzAtOS40NjMgNy40NzQtMTYuOTM3IDE2LjkzOC0xNi45Mzd6IiBmaWxsPSJjdXJyZW50Q29sb3IiLz48L3N2Zz4=;" parent="bRbaYRU3lNsDe89mBz-G-37" vertex="1">
                    <mxGeometry x="270" y="29.5" width="71" height="71" as="geometry"/>
                </mxCell>
                <mxCell id="24" value="&lt;font style=&quot;font-size: 25px;&quot;&gt;3.&lt;/font&gt;" style="text;html=1;align=center;verticalAlign=middle;resizable=0;points=[];autosize=1;strokeColor=none;fillColor=none;fontSize=12;" vertex="1" parent="bRbaYRU3lNsDe89mBz-G-37">
                    <mxGeometry x="50" y="25" width="40" height="40" as="geometry"/>
                </mxCell>
                <mxCell id="bRbaYRU3lNsDe89mBz-G-45" value="" style="rounded=0;whiteSpace=wrap;html=1;" parent="1" vertex="1">
                    <mxGeometry x="820" y="150" width="320" height="200" as="geometry"/>
                </mxCell>
                <mxCell id="bRbaYRU3lNsDe89mBz-G-51" value="" style="group" parent="1" vertex="1" connectable="0">
                    <mxGeometry x="850" y="245" width="120" height="60" as="geometry"/>
                </mxCell>
                <mxCell id="bRbaYRU3lNsDe89mBz-G-46" value="" style="rounded=0;whiteSpace=wrap;html=1;" parent="bRbaYRU3lNsDe89mBz-G-51" vertex="1">
                    <mxGeometry width="120" height="60" as="geometry"/>
                </mxCell>
                <mxCell id="bRbaYRU3lNsDe89mBz-G-50" value="&lt;span style=&quot;font-size: 20px;&quot;&gt;Serveur&lt;br&gt;&lt;/span&gt;" style="text;html=1;align=center;verticalAlign=middle;resizable=0;points=[];autosize=1;strokeColor=none;fillColor=none;" parent="bRbaYRU3lNsDe89mBz-G-51" vertex="1">
                    <mxGeometry x="15" y="10" width="90" height="40" as="geometry"/>
                </mxCell>
                <mxCell id="18" style="edgeStyle=none;html=1;exitX=0;exitY=0.5;exitDx=0;exitDy=0;entryX=1;entryY=0.5;entryDx=0;entryDy=0;fontSize=20;startArrow=classic;startFill=1;" edge="1" parent="1" source="bRbaYRU3lNsDe89mBz-G-53" target="bRbaYRU3lNsDe89mBz-G-46">
                    <mxGeometry relative="1" as="geometry"/>
                </mxCell>
                <mxCell id="bRbaYRU3lNsDe89mBz-G-53" value="" style="rounded=0;whiteSpace=wrap;html=1;" parent="1" vertex="1">
                    <mxGeometry x="1000" y="245" width="120" height="60" as="geometry"/>
                </mxCell>
                <mxCell id="bRbaYRU3lNsDe89mBz-G-55" value="" style="rounded=0;whiteSpace=wrap;html=1;" parent="1" vertex="1">
                    <mxGeometry x="820" y="450" width="320" height="150" as="geometry"/>
                </mxCell>
                <mxCell id="bRbaYRU3lNsDe89mBz-G-56" value="&lt;font style=&quot;font-size: 20px;&quot;&gt;front-end&lt;/font&gt;" style="text;html=1;strokeColor=none;fillColor=none;align=center;verticalAlign=middle;whiteSpace=wrap;rounded=0;" parent="1" vertex="1">
                    <mxGeometry x="950" y="470" width="60" height="30" as="geometry"/>
                </mxCell>
                <mxCell id="bRbaYRU3lNsDe89mBz-G-65" value="&lt;font style=&quot;font-size: 30px;&quot;&gt;users&lt;/font&gt;" style="rounded=0;whiteSpace=wrap;html=1;" parent="1" vertex="1">
                    <mxGeometry x="920" y="730" width="120" height="65" as="geometry"/>
                </mxCell>
                <mxCell id="11" style="edgeStyle=none;html=1;exitX=0.5;exitY=1;exitDx=0;exitDy=0;entryX=0.5;entryY=0;entryDx=0;entryDy=0;fontSize=17;" edge="1" parent="1" source="bRbaYRU3lNsDe89mBz-G-66" target="bRbaYRU3lNsDe89mBz-G-6">
                    <mxGeometry relative="1" as="geometry"/>
                </mxCell>
                <mxCell id="12" style="edgeStyle=none;html=1;exitX=0.5;exitY=1;exitDx=0;exitDy=0;entryX=0.5;entryY=0;entryDx=0;entryDy=0;fontSize=17;" edge="1" parent="1" source="bRbaYRU3lNsDe89mBz-G-66" target="bRbaYRU3lNsDe89mBz-G-2">
                    <mxGeometry relative="1" as="geometry"/>
                </mxCell>
                <mxCell id="bRbaYRU3lNsDe89mBz-G-66" value="&lt;font style=&quot;font-size: 30px;&quot;&gt;M&amp;amp;S Engineers&lt;/font&gt;" style="rounded=0;whiteSpace=wrap;html=1;" parent="1" vertex="1">
                    <mxGeometry x="220" y="10" width="157.5" height="90" as="geometry"/>
                </mxCell>
                <mxCell id="9" style="edgeStyle=none;html=1;exitX=0.5;exitY=1;exitDx=0;exitDy=0;entryX=0.5;entryY=0;entryDx=0;entryDy=0;fontSize=20;" edge="1" parent="1" source="bRbaYRU3lNsDe89mBz-G-25" target="bRbaYRU3lNsDe89mBz-G-30">
                    <mxGeometry relative="1" as="geometry"/>
                </mxCell>
                <mxCell id="16" style="edgeStyle=none;html=1;exitX=1;exitY=0.5;exitDx=0;exitDy=0;entryX=0;entryY=0.5;entryDx=0;entryDy=0;fontSize=20;startArrow=classic;startFill=1;" edge="1" parent="1" source="bRbaYRU3lNsDe89mBz-G-6" target="bRbaYRU3lNsDe89mBz-G-16">
                    <mxGeometry relative="1" as="geometry"/>
                </mxCell>
                <mxCell id="17" style="edgeStyle=none;html=1;exitX=0.5;exitY=1;exitDx=0;exitDy=0;entryX=0.5;entryY=0;entryDx=0;entryDy=0;fontSize=20;startArrow=classic;startFill=1;" edge="1" parent="1" source="bRbaYRU3lNsDe89mBz-G-46" target="bRbaYRU3lNsDe89mBz-G-55">
                    <mxGeometry relative="1" as="geometry"/>
                </mxCell>
                <mxCell id="19" value="&lt;font style=&quot;font-size: 20px;&quot;&gt;Back-end&lt;/font&gt;" style="text;html=1;strokeColor=none;fillColor=none;align=center;verticalAlign=middle;whiteSpace=wrap;rounded=0;" vertex="1" parent="1">
                    <mxGeometry x="940" y="170" width="90" height="30" as="geometry"/>
                </mxCell>
                <mxCell id="20" value="&lt;font style=&quot;font-size: 20px;&quot;&gt;Noyau&lt;br&gt;M&amp;amp;S&amp;nbsp;&lt;/font&gt;" style="text;html=1;strokeColor=none;fillColor=none;align=center;verticalAlign=middle;whiteSpace=wrap;rounded=0;" vertex="1" parent="1">
                    <mxGeometry x="1015" y="260" width="90" height="30" as="geometry"/>
                </mxCell>
                <mxCell id="23" value="&lt;font style=&quot;font-size: 25px;&quot;&gt;2.&lt;/font&gt;" style="text;html=1;align=center;verticalAlign=middle;resizable=0;points=[];autosize=1;strokeColor=none;fillColor=none;fontSize=12;" vertex="1" parent="1">
                    <mxGeometry x="120" y="610" width="40" height="40" as="geometry"/>
                </mxCell>
            </root>
        </mxGraphModel>
    </diagram>
</mxfile>